<svg xmlns="http://www.w3.org/2000/svg" width="12" height="14" viewBox="0 0 12 14" fill="none">
  <path d="M11.361 3.31973C11.3489 3.31973 11.3307 3.31973 11.3125 3.31973C8.10784 2.99866 4.90919 2.8775 1.74082 3.19857L0.504984 3.31973C0.250547 3.34397 0.0263995 3.16222 0.00216737 2.90779C-0.0220648 2.65335 0.159676 2.43526 0.408056 2.41103L1.6439 2.28987C4.86679 1.96273 8.13207 2.08995 11.4034 2.41103C11.6518 2.43526 11.8335 2.65941 11.8093 2.90779C11.7911 3.14405 11.5912 3.31973 11.361 3.31973Z" fill="#3C4F66"/>
  <path d="M3.78903 2.70794C3.7648 2.70794 3.74057 2.70794 3.71028 2.70188C3.46795 2.65948 3.29833 2.42321 3.34074 2.18089L3.47401 1.38729C3.57094 0.805719 3.70422 0 5.11572 0H6.70292C8.1205 0 8.25378 0.836009 8.34465 1.39335L8.47793 2.18089C8.52033 2.42927 8.35071 2.66554 8.10839 2.70188C7.86001 2.74429 7.62374 2.57467 7.5874 2.33234L7.45412 1.5448C7.36931 1.01775 7.35113 0.914763 6.70898 0.914763H5.12177C4.47965 0.914763 4.46753 0.999576 4.37666 1.53874L4.23733 2.32629C4.20098 2.55043 4.00712 2.70794 3.78903 2.70794Z" fill="#3C4F66"/>
  <path d="M7.85388 13.0248H3.96461C1.85036 13.0248 1.76555 11.8556 1.69891 10.9105L1.30514 4.81008C1.28696 4.5617 1.48082 4.34362 1.7292 4.32544C1.98364 4.31333 2.19567 4.50113 2.21384 4.74951L2.60761 10.85C2.67425 11.7708 2.69848 12.1161 3.96461 12.1161H7.85388C9.12606 12.1161 9.1503 11.7708 9.21088 10.85L9.60465 4.74951C9.62282 4.50113 9.84091 4.31333 10.0893 4.32544C10.3377 4.34362 10.5315 4.55564 10.5134 4.81008L10.1196 10.9105C10.0529 11.8556 9.96813 13.0248 7.85388 13.0248Z" fill="#3C4F66"/>
  <path d="M6.91456 9.69295H4.89724C4.64884 9.69295 4.44287 9.48697 4.44287 9.23859C4.44287 8.99021 4.64884 8.78424 4.89724 8.78424H6.91456C7.16294 8.78424 7.36891 8.99021 7.36891 9.23859C7.36891 9.48697 7.16294 9.69295 6.91456 9.69295Z" fill="#3C4F66"/>
  <path d="M7.42331 7.26967H4.39429C4.14591 7.26967 3.93994 7.06369 3.93994 6.81531C3.93994 6.56694 4.14591 6.36096 4.39429 6.36096H7.42331C7.67169 6.36096 7.87766 6.56694 7.87766 6.81531C7.87766 7.06369 7.67169 7.26967 7.42331 7.26967Z" fill="#3C4F66"/>
</svg>