<svg width="24" height="25" viewBox="0 0 24 25" fill="none" xmlns="http://www.w3.org/2000/svg">
<g id="&#240;&#159;&#166;&#134; icon &#34;chart 1&#34;">
<g id="Group">
<path id="Vector" d="M22.5904 25.0001H0.903614C0.409639 25.0001 0 24.5905 0 24.0965C0 23.6025 0.409639 23.1929 0.903614 23.1929H22.5904C23.0843 23.1929 23.494 23.6025 23.494 24.0965C23.494 24.5905 23.0843 25.0001 22.5904 25.0001Z" fill="#101934"/>
<path id="Vector_2" d="M4.03634 7.6853H2.10863C1.44598 7.6853 0.903809 8.22747 0.903809 8.89012V19.2757C0.903809 19.9383 1.44598 20.4805 2.10863 20.4805H4.03634C4.69899 20.4805 5.24116 19.9383 5.24116 19.2757V8.89012C5.24116 8.21542 4.69899 7.6853 4.03634 7.6853Z" fill="#101934"/>
<path id="Vector_3" d="M12.7102 3.84521H10.7825C10.1198 3.84521 9.57764 4.38738 9.57764 5.05003V19.2789C9.57764 19.9416 10.1198 20.4838 10.7825 20.4838H12.7102C13.3728 20.4838 13.915 19.9416 13.915 19.2789V5.05003C13.915 4.38738 13.3728 3.84521 12.7102 3.84521Z" fill="#101934"/>
<path id="Vector_4" d="M21.3859 0H19.4582C18.7956 0 18.2534 0.542169 18.2534 1.20482V19.2771C18.2534 19.9398 18.7956 20.4819 19.4582 20.4819H21.3859C22.0486 20.4819 22.5908 19.9398 22.5908 19.2771V1.20482C22.5908 0.542169 22.0486 0 21.3859 0Z" fill="#101934"/>
</g>
</g>
</svg>
