<svg xmlns="http://www.w3.org/2000/svg" width="13" height="13" viewBox="0 0 13 13" fill="none">
  <path d="M3.37186 8.59824C3.16356 8.59824 2.95527 8.54616 2.76433 8.43623C2.37665 8.21635 2.1452 7.82284 2.1452 7.38309V5.31744C2.1452 5.167 2.04684 4.91245 1.92533 4.76779L0.467212 3.23445C0.195264 2.96829 -0.00146484 2.5054 -0.00146484 2.15245V1.2556C-0.00146484 0.555481 0.530848 0 1.21361 0H6.36329C7.03448 0 7.57837 0.543903 7.57837 1.21509V2.07145C7.57837 2.52277 7.318 3.02037 7.06341 3.27496L5.36807 4.77356C5.23499 4.8835 5.12505 5.1497 5.12505 5.34643V7.02435C5.12505 7.4236 4.88204 7.86919 4.5638 8.06013L4.03145 8.40724C3.82315 8.53453 3.59752 8.59824 3.37186 8.59824ZM1.21361 0.873712C1.01688 0.873712 0.866456 1.04152 0.866456 1.26139V2.15824C0.866456 2.2566 0.964826 2.50541 1.09212 2.6327L2.58492 4.20074C2.80479 4.47269 3.01888 4.91822 3.01888 5.31744V7.38309C3.01888 7.55668 3.12885 7.64353 3.19829 7.67824C3.29086 7.73032 3.44127 7.75925 3.56857 7.67824L4.10668 7.33102C4.17611 7.29051 4.25713 7.12856 4.25713 7.0302V5.35216C4.25713 4.89507 4.48278 4.39168 4.80102 4.11973L6.46744 2.64427C6.57159 2.54012 6.71045 2.2566 6.71045 2.07145V1.21509C6.71045 1.02415 6.55423 0.867921 6.36329 0.867921H1.21361V0.873712Z" fill="#3C4F66"/>
  <path d="M7.95447 12.4458H4.48279C1.34092 12.4458 -0.00146484 11.1034 -0.00146484 7.96154V6.2257C-0.00146484 5.98847 0.195264 5.79174 0.432495 5.79174C0.669727 5.79174 0.866456 5.98847 0.866456 6.2257V7.96154C0.866456 10.629 1.81538 11.5779 4.48279 11.5779H7.95447C10.6219 11.5779 11.5708 10.629 11.5708 7.96154V4.48985C11.5708 2.81188 11.1774 1.8398 10.2921 1.3364C10.1995 1.28433 9.89283 1.14547 9.01334 1.00661C8.7761 0.971889 8.61409 0.746219 8.65459 0.508987C8.6951 0.271755 8.92076 0.109749 9.1522 0.150252C9.91019 0.271761 10.4252 0.410623 10.7202 0.578421C11.889 1.24383 12.4387 2.48785 12.4387 4.48985V7.96154C12.4387 11.1034 11.0963 12.4458 7.95447 12.4458Z" fill="#3C4F66"/>
  <path d="M9.69031 7.23828H6.79724C6.56001 7.23828 6.36328 7.04155 6.36328 6.80432C6.36328 6.56709 6.56001 6.37036 6.79724 6.37036H9.69031C9.92754 6.37036 10.1243 6.56709 10.1243 6.80432C10.1243 7.04155 9.92754 7.23828 9.69031 7.23828Z" fill="#3C4F66"/>
  <path d="M9.69031 9.55273H5.64001C5.40278 9.55273 5.20605 9.35601 5.20605 9.11877C5.20605 8.88154 5.40278 8.68481 5.64001 8.68481H9.69031C9.92754 8.68481 10.1243 8.88154 10.1243 9.11877C10.1243 9.35601 9.92754 9.55273 9.69031 9.55273Z" fill="#3C4F66"/>
</svg>